<svg width="129" height="24" viewBox="0 0 129 24" fill="none" xmlns="http://www.w3.org/2000/svg">
<path d="M12 19.2884L19.416 24L17.448 15.12L24 9.14526L15.372 8.3621L12 0L8.628 8.3621L0 9.14526L6.54 15.12L4.584 24L12 19.2884Z" fill="url(#paint0_linear_1_19)"/>
<path d="M37 19.2884L44.416 24L42.448 15.12L49 9.14526L40.372 8.3621L37 0L33.628 8.3621L25 9.14526L31.54 15.12L29.584 24L37 19.2884Z" fill="url(#paint1_linear_1_19)"/>
<path d="M62 19.2884L69.416 24L67.448 15.12L74 9.14526L65.372 8.3621L62 0L58.628 8.3621L50 9.14526L56.54 15.12L54.584 24L62 19.2884Z" fill="url(#paint2_linear_1_19)"/>
<path d="M87 19.2884L94.416 24L92.448 15.12L99 9.14526L90.372 8.3621L87 0L83.628 8.3621L75 9.14526L81.54 15.12L79.584 24L87 19.2884Z" fill="url(#paint3_linear_1_19)"/>
<path d="M112 19.2884L119.416 24L117.448 15.12L124 9.14526L115.372 8.3621L112 0L108.628 8.3621L100 9.14526L106.54 15.12L104.584 24L112 19.2884Z" fill="url(#paint4_linear_1_19)"/>
<defs>
<linearGradient id="paint0_linear_1_19" x1="4" y1="21" x2="3.5" y2="8" gradientUnits="userSpaceOnUse">
<stop offset="0.47" stop-color="#FFAC33"/>
<stop offset="1" stop-color="white"/>
</linearGradient>
<linearGradient id="paint1_linear_1_19" x1="29" y1="21" x2="28.5" y2="8" gradientUnits="userSpaceOnUse">
<stop offset="0.47" stop-color="#FFAC33"/>
<stop offset="1" stop-color="white"/>
</linearGradient>
<linearGradient id="paint2_linear_1_19" x1="54" y1="21" x2="53.5" y2="8" gradientUnits="userSpaceOnUse">
<stop offset="0.47" stop-color="#FFAC33"/>
<stop offset="1" stop-color="white"/>
</linearGradient>
<linearGradient id="paint3_linear_1_19" x1="79" y1="21" x2="78.5" y2="8" gradientUnits="userSpaceOnUse">
<stop offset="0.47" stop-color="#FFAC33"/>
<stop offset="1" stop-color="white"/>
</linearGradient>
<linearGradient id="paint4_linear_1_19" x1="104" y1="21" x2="103.5" y2="8" gradientUnits="userSpaceOnUse">
<stop offset="0.47" stop-color="#FFAC33"/>
<stop offset="1" stop-color="white"/>
</linearGradient>
</defs>
</svg>
