<svg width="112" height="21" viewBox="0 0 112 21" fill="none" xmlns="http://www.w3.org/2000/svg">
<path d="M9.04917 4.02692C9.34852 3.10561 10.6519 3.10561 10.9513 4.02692L12.0209 7.31872C12.1547 7.73074 12.5387 8.0097 12.9719 8.0097H16.4331C17.4018 8.0097 17.8046 9.24932 17.0209 9.81872L14.2207 11.8532C13.8702 12.1078 13.7236 12.5592 13.8575 12.9712L14.927 16.263C15.2264 17.1843 14.1719 17.9504 13.3882 17.381L10.588 15.3466C10.2375 15.0919 9.76293 15.0919 9.41244 15.3466L6.61227 17.381C5.82856 17.9504 4.77408 17.1843 5.07343 16.263L6.143 12.9712C6.27688 12.5592 6.13022 12.1078 5.77973 11.8532L2.97956 9.81872C2.19585 9.24932 2.59862 8.0097 3.56735 8.0097H7.02855C7.46177 8.0097 7.84573 7.73074 7.9796 7.31872L9.04917 4.02692Z" fill="#E56337"/>
<path d="M32.0492 4.02692C32.3485 3.10561 33.6519 3.10561 33.9513 4.02692L35.0209 7.31872C35.1547 7.73074 35.5387 8.0097 35.9719 8.0097H39.4331C40.4018 8.0097 40.8046 9.24932 40.0209 9.81872L37.2207 11.8532C36.8702 12.1078 36.7236 12.5592 36.8575 12.9712L37.927 16.263C38.2264 17.1843 37.1719 17.9504 36.3882 17.381L33.588 15.3466C33.2375 15.0919 32.7629 15.0919 32.4124 15.3466L29.6123 17.381C28.8286 17.9504 27.7741 17.1843 28.0734 16.263L29.143 12.9712C29.2769 12.5592 29.1302 12.1078 28.7797 11.8532L25.9796 9.81872C25.1958 9.24932 25.5986 8.0097 26.5673 8.0097H30.0285C30.4618 8.0097 30.8457 7.73074 30.9796 7.31872L32.0492 4.02692Z" fill="#E56337"/>
<path d="M55.0492 4.02692C55.3485 3.10561 56.6519 3.10561 56.9513 4.02692L58.0209 7.31872C58.1547 7.73074 58.5387 8.0097 58.9719 8.0097H62.4331C63.4018 8.0097 63.8046 9.24932 63.0209 9.81872L60.2207 11.8532C59.8702 12.1078 59.7236 12.5592 59.8575 12.9712L60.927 16.263C61.2264 17.1843 60.1719 17.9504 59.3882 17.381L56.588 15.3466C56.2375 15.0919 55.7629 15.0919 55.4124 15.3466L52.6123 17.381C51.8286 17.9504 50.7741 17.1843 51.0734 16.263L52.143 12.9712C52.2769 12.5592 52.1302 12.1078 51.7797 11.8532L48.9796 9.81872C48.1958 9.24932 48.5986 8.0097 49.5673 8.0097H53.0285C53.4618 8.0097 53.8457 7.73074 53.9796 7.31872L55.0492 4.02692Z" fill="#E56337"/>
<path d="M76.3748 14.9538L78.9998 13.3704L81.6248 14.9746L80.9373 11.9746L83.2498 9.97461L80.2082 9.70378L78.9998 6.87044L77.7915 9.68294L74.7498 9.95378L77.0623 11.9746L76.3748 14.9538ZM73.854 18.4329L75.2082 12.5788L70.6665 8.64128L76.6665 8.12044L78.9998 2.59961L81.3332 8.12044L87.3332 8.64128L82.7915 12.5788L84.1457 18.4329L78.9998 15.3288L73.854 18.4329Z" fill="#1D1B20"/>
<path d="M99.3748 14.9538L102 13.3704L104.625 14.9746L103.937 11.9746L106.25 9.97461L103.208 9.70378L102 6.87044L100.792 9.68294L97.7498 9.95378L100.062 11.9746L99.3748 14.9538ZM96.854 18.4329L98.2082 12.5788L93.6665 8.64128L99.6665 8.12044L102 2.59961L104.333 8.12044L110.333 8.64128L105.792 12.5788L107.146 18.4329L102 15.3288L96.854 18.4329Z" fill="#1D1B20"/>
</svg>
